<svg version="1.1" class='Q8svg' xmlns="http://www.w3.org/2000/svg" xmlns:xlink="http://www.w3.org/1999/xlink" x="0px" y="0px"
	 viewBox="0 0 714.5 202" style="enable-background:new 0 0 714.5 202;" xml:space="preserve">
<g id="Q8man">
	<path class="st0H" d="M383.7,147.5c0-16.7-3.7-61.7-5.8-82.2c-2.1-21.9-4.2-46.5-27.2-46.5c-23,0-25.6,25.7-27.5,47.9
		c-1.8,20.3-5.5,66.7-5.5,80.8C317.7,167.6,383.7,167.6,383.7,147.5z"/>
	<path class="st0H" d="M318.6,151.3c0,0-1.4,9.5,6.8,13.2c13.8,6.3,14.9-2.7,14.9-2.7"/>
	<line class="st0H" x1="325.4" y1="193.3" x2="328.6" y2="165.8"/>
	<path class="st1H" d="M330.7,199.5l-16.5-0.2c0,0,6.9-6.4,13-5.4S330.7,199.5,330.7,199.5z"/>
	<path class="st0H" d="M382.7,151.5c0,0,2.2,9.2-6,13c-13.8,6.3-14.9-2.7-14.9-2.7"/>
	<line class="st0H" x1="376.7" y1="193.3" x2="373.6" y2="165.8"/>
	<path class="st1H" d="M371.5,199.2l16.5,0.5c0,0-6.7-6.7-12.9-6C369,194.4,371.5,199.2,371.5,199.2z"/>
	<path class="st2" d="M339.9,55.9h-0.7c-0.3,0-0.5,0.2-0.5,0.5v4.7c0,0.3,0.2,0.5,0.5,0.5h0.7c0.3,0,0.5-0.2,0.5-0.5v-4.7
		C340.5,56.2,340.2,55.9,339.9,55.9z"/>
	<path class="st2" d="M350.9,65.4h-0.3c-0.3,0-0.5,0.2-0.5,0.5v7.3c0,0.3,0.2,0.5,0.5,0.5h0.3c0.3,0,0.5-0.2,0.5-0.5v-7.3
		C351.4,65.6,351.2,65.4,350.9,65.4z"/>
	<path class="st2" d="M352.8,72.1l-0.1-0.2c-0.1-0.3-0.5-0.4-0.7-0.2l-1.7,0.9c-0.3,0.1-0.4,0.5-0.2,0.7l0.1,0.2
		c0.1,0.3,0.5,0.4,0.7,0.2l1.7-0.9C352.9,72.7,353,72.4,352.8,72.1z"/>
	<path class="st2" d="M362.7,55.9H362c-0.3,0-0.5,0.2-0.5,0.5v4.7c0,0.3,0.2,0.5,0.5,0.5h0.7c0.3,0,0.5-0.2,0.5-0.5v-4.7
		C363.2,56.2,363,55.9,362.7,55.9z"/>
	<path class="st0H" d="M315.9,101L315.9,101c-1.5-0.7-3.1,0.1-3.7,1.9l-12.7,37c-0.6,1.8,0.1,3.8,1.6,4.5v0c1.5,0.7,3.1-0.1,3.7-1.9
		l12.7-37C318.1,103.8,317.4,101.7,315.9,101z"/>
	<path class="st0H" d="M386.2,98.5L386.2,98.5c1.5-0.7,3.1,0.1,3.7,1.9l12.7,37c0.6,1.8-0.1,3.8-1.6,4.5l0,0
		c-1.5,0.7-3.1-0.1-3.7-1.9l-12.7-37C384.1,101.3,384.8,99.2,386.2,98.5z"/>
</g>
<g class="Q8defense">
	<path class="st90" d="M320.9,76.7c0,0-15.8,15.5-17.8,32.8c-0.9,8,15.4,10.8,15.4,10.8h0.6l3.2-43.6H320.9z"/>
	<path class="st90" d="M381.3,76.7c0,0,15.8,15.5,17.8,32.8c0.9,8-15.4,10.8-15.4,10.8l-4.6-42.9L381.3,76.7z"/>
	<path class="st1" d="M336.8,137.6c4.2,0.4,8.9,0.6,14.1,0.6c5.4,0,10.3-0.2,14.7-0.5"/>
	<path class="st3" d="M333.4,147.9l-17.4,4l-1.7,9.1c0,0,13.5,4.8,36.7,4.8c23.2,0,37.6-3.9,37.6-3.9l-2.3-9.7l-17.8-4.4"/>
	<path class="st4B" d="M320.9,76.7c0,0-15.8,15.5-17.8,32.8c-0.9,8,15.4,10.8,15.4,10.8"/>
	<path class="st4B" d="M381.3,76.7c0,0,15.8,15.5,17.8,32.8c0.9,8-15.4,10.8-15.4,10.8"/>
	<g>
		<path class="st4B" d="M352.7,16.6c-1.2,2.6,0.5,7.3,5.3,11.6c4.5,4,9.8,4.9,13.8,1.6c2.6-2.2,9.9-9.2,9.9-9.2l-8.1-1l2.3-8.2
			l-11.6-0.6L363.7,2C363.7,2,355.1,11.6,352.7,16.6z"/>
		
			<ellipse transform="matrix(0.7071 -0.7071 0.7071 0.7071 90.3075 263.5081)" class="st4" cx="363.2" cy="22.7" rx="3.2" ry="2.1"/>
	</g>
	<path class="st1" d="M322.8,70.8c0,0,14.2,5.9,27.9,5.9c13.7,0,27.7-5.9,27.7-5.9"/>
	<path class="st1" d="M322.8,76c0,0,14.2,5.9,27.9,5.9c13.7,0,27.7-5.9,27.7-5.9"/>
	<path class="st1" d="M322.8,81.2c0,0,14.2,15.4,27.9,15.4c13.7,0,27.7-15.4,27.7-15.4"/>
	<g>
		<path class="st5" d="M381.3,77.3c0-0.4-0.1-0.9-0.1-1.3l1.4-0.8l-1.8-3.2l-1.5,0.8c-0.6-0.6-1.4-1-2.2-1.3v-1.7h-3.6v1.7
			c-0.8,0.3-1.6,0.7-2.2,1.3l-1.5-0.8l-1.8,3.2l1.4,0.8c-0.1,0.4-0.1,0.8-0.1,1.3s0.1,0.9,0.1,1.3l-1.4,0.8l1.8,3.2l1.5-0.8
			c0.6,0.6,1.4,1,2.2,1.3v1.7h3.6V83c0.8-0.3,1.6-0.7,2.2-1.3l1.5,0.8l1.8-3.2l-1.4-0.8C381.3,78.2,381.3,77.7,381.3,77.3z"/>
		<circle class="st5" cx="375.3" cy="77.3" r="2.4"/>
	</g>
	<g>
		<path class="st5" d="M332.4,77.3c0-0.4-0.1-0.9-0.1-1.3l1.4-0.8l-1.8-3.2l-1.5,0.8c-0.6-0.6-1.4-1-2.2-1.3v-1.7h-3.6v1.7
			c-0.8,0.3-1.6,0.7-2.2,1.3L321,72l-1.8,3.2l1.4,0.8c-0.1,0.4-0.1,0.8-0.1,1.3s0.1,0.9,0.1,1.3l-1.4,0.8l1.8,3.2l1.5-0.8
			c0.6,0.6,1.4,1,2.2,1.3v1.7h3.6V83c0.8-0.3,1.6-0.7,2.2-1.3l1.5,0.8l1.8-3.2l-1.4-0.8C332.4,78.2,332.4,77.7,332.4,77.3z"/>
		<circle class="st5" cx="326.4" cy="77.3" r="2.4"/>
	</g>
	<polyline class="st1" points="336.2,120.9 350.7,112 365.2,120.9 	"/>
	<line class="st1" x1="350.7" y1="112" x2="350.7" y2="96.6"/>
	<line class="st1" x1="344" y1="116.1" x2="342.5" y2="95"/>
	<line class="st1" x1="336.8" y1="120.6" x2="334.9" y2="91.1"/>
	<line class="st1" x1="328.8" y1="117.1" x2="327.2" y2="85.1"/>
	<line class="st1" x1="357.5" y1="116.1" x2="358.9" y2="95"/>
	<line class="st1" x1="364.7" y1="120.6" x2="366.5" y2="91.1"/>
	<line class="st1" x1="372.6" y1="117.1" x2="374.2" y2="85.1"/>
	<circle class="st3" cx="350.9" cy="128.4" r="4"/>
	<circle class="st3" cx="350.9" cy="128.4" r="4"/>
	<polygon class="st3" points="381.3,113.5 358.9,117.9 358.9,125.5 381.3,125.5 	"/>
	<polygon class="st3" points="387.5,152.2 368.4,147.9 362.8,131.1 382.9,130.7 	"/>
	<polygon class="st3" points="314.2,152.2 333.4,147.9 338.9,131.1 318.8,130.7 	"/>
	<polygon class="st3" points="320.4,113.5 342.8,117.9 342.8,125.5 320.4,125.5 	"/>
	<polygon class="st3" points="383,131.4 318.7,131.4 319.3,125.5 382.2,125.5 	"/>
	<line class="st1" x1="323.3" y1="163.3" x2="326.2" y2="149.5"/>
	<line class="st1" x1="334.6" y1="165" x2="342" y2="131.4"/>
	<line class="st1" x1="378.9" y1="163.3" x2="376" y2="149.5"/>
	<line class="st1" x1="367.6" y1="165" x2="360.2" y2="131.4"/>
	<line class="st1" x1="351.1" y1="157.3" x2="351.1" y2="165.8"/>
	<path class="st1" d="M315.9,151.9c4.3,1.3,16.6,4.3,34.9,4.3c17.9,0,30.5-2.3,35.4-3.4"/>
	<path class="st1" d="M334.2,146.6c4.8,0.5,10.4,0.9,16.7,0.9c6.3,0,11.9-0.3,16.7-0.7"/>
	<polyline class="st3" points="345.2,131.4 343.2,157.3 358.9,157.3 356.5,131.4 	"/>
	<circle class="st3" cx="350.9" cy="128.4" r="6.3"/>
	<circle class="st3" cx="350.9" cy="128.4" r="2.6"/>
	<g class="Q8shield">
		<ellipse class="st4" cx="399.1" cy="135.2" rx="35.3" ry="35.3"/>
		<path class="st4" d="M399,157c12.1,0,21.9-9.8,21.9-21.9c0-3.2-4.2-2.6-5.2-3.9c-1.1-1.5-1.1-3-1.1-4.5c0-1.1-0.2-3.4-0.2-3.4
			l-31.1-0.4c0,0,0.1,2.2,0.1,3.7c0,1.4,0,3-1.1,4.5c-1,1.3-5.2,0.7-5.2,3.9c0,12.1,9.8,21.9,21.9,21.9"/>
		<path class="st4" d="M414.6,126.4c-0.7,0.7-1.7,2-2.4,3.6c-2.2,4.7-0.7,10.1-0.7,10.1l-12.5,16.3L386.4,140c0,0,1.4-5.4-0.7-10.1
			c-0.8-1.8-1.5-2.9-2.3-3.6l-0.2-2.8h31.4L414.6,126.4z"/>
		<line class="st4" x1="389.6" y1="137.6" x2="386.4" y2="140"/>
		<line class="st4" x1="408.3" y1="137.6" x2="411.6" y2="140.2"/>
		<line class="st4" x1="398.9" y1="146.9" x2="398.9" y2="157.6"/>
		<path class="st4" d="M416.1,104.2l-0.4,0c0,0-5.5,4.6-16.8,4.6c-11.2,0-16.8-4.6-16.8-4.6c-4.1,2.3-7.7,5.3-10.7,9
			c0.6,2.9,2.2,9.8,4.2,10.7c2.6,1.1,10.8-1.1,12.7,3.4c1.9,4.5,1.1,10.5,1.1,10.5l9.3,9.4l9.3-9.4c0,0-0.7-6,1.1-10.5
			c1.9-4.5,10.1-2.2,12.7-3.4c2.1-0.9,3.8-8.4,4.3-11C423.6,109.3,420.1,106.3,416.1,104.2z"/>
		<path class="st4" d="M413.2,102.6c-2.6,1.3-7.4,3.1-14.3,3.1c-6.8,0-11.5-1.7-14.2-3"/>
		<path class="st4" d="M402.9,127l-2.7,2.8c-0.7,0.7-1.8,0.7-2.5,0l-2.7-2.8c-0.3-0.3-0.5-0.8-0.5-1.3v-11.1c0-1,0.8-1.8,1.8-1.8
			h5.5c1,0,1.8,0.8,1.8,1.8v11.1C403.4,126.2,403.3,126.7,402.9,127z"/>
		<g>
			<circle class="st4" cx="393.3" cy="164.1" r="1.9"/>
			<circle class="st4" cx="383.2" cy="159.3" r="1.9"/>
			<circle class="st4" cx="375.7" cy="152.2" r="1.9"/>
			<circle class="st4" cx="378.5" cy="128.4" r="1.5"/>
			<circle class="st4" cx="418.5" cy="128.4" r="1.5"/>
			<circle class="st4" cx="404.5" cy="164.1" r="1.9"/>
			<circle class="st4" cx="414.6" cy="159.3" r="1.9"/>
			<circle class="st4" cx="422.1" cy="152.2" r="1.9"/>
		</g>
	</g>
</g>
<g class="Q8rolling">
	<path class="st6" d="M320.9,76.7c0,0-15.8,15.5-17.8,32.8c-0.9,8,15.4,10.8,15.4,10.8"/>
	<path class="st6" d="M381.2,76.7c0,0,15.8,15.5,17.8,32.8c0.9,8-15.4,10.8-15.4,10.8"/>
	<!-- SVG animate start -->
	<path id="Q8cloth" class="st6 -pause" d="M384.7,128.4c0-25.4-5.3-62.9-5.3-62.9H322c0,0-5.4,37.3-5.4,62.4c7.6,3.9,31,21.2,34,21.2
		C353.5,149,375.9,132.8,384.7,128.4z">
		<animate class="Q8cloth-pause" attributeName="d" attributeType="XML" dur="0.35s" begin="none" fill="freeze" 
		from="M384.7,128.4c0-25.4-5.3-62.9-5.3-62.9H322c0,0-5.4,37.3-5.4,62.4c7.6,3.9,31,21.2,34,21.2C353.5,149,375.9,132.8,384.7,128.4z" 
		to = "M386.8,128.4c0-25.4-7.5-62.9-7.5-62.9H322c0,0-7.5,37.3-7.5,62.4c8,3.9,33.1,21.2,36.1,21.2C353.5,149,377.5,132.8,386.8,128.4z" />

		<animate class="Q8cloth-play" attributeName="d" attributeType="XML" dur="0.35s" begin="none" fill="freeze" 
		to = "M384.7,128.4c0-25.4-5.3-62.9-5.3-62.9H322c0,0-5.4,37.3-5.4,62.4c7.6,3.9,31,21.2,34,21.2C353.5,149,375.9,132.8,384.7,128.4z" 
		from="M386.8,128.4c0-25.4-7.5-62.9-7.5-62.9H322c0,0-7.5,37.3-7.5,62.4c8,3.9,33.1,21.2,36.1,21.2C353.5,149,377.5,132.8,386.8,128.4z" />
	</path>
	<!-- SVG animate end -->
	<g id="Q8head">
		<g>
			<path class="st6" d="M374,59c-13.6,4-33.2,4-46.7,0c-1.2,4.6-1.7,9.3-1.7,13.8c0,0.7,0,1.4,0,2.4c0,0.6,0.1,1.2,0.3,1.8
				c13.8,5.1,35.8,5.1,49.6,0c0.2-0.6,0.3-1.2,0.3-1.8c0-0.9,0-1.7,0-2.4C375.7,68.3,375.2,63.6,374,59z"/>
		</g>
		<path class="st6" d="M350.7,11.2c-25.4,0-36.4,27.6-36.4,51.9c0,1,0,2.1,0,3.5c0,4.9,3.6,8.7,9.2,11.5c1.5,0.7,3-0.6,3.1-2.5
			c0-0.3,0-0.5,0-0.5c0-16.3,7.1-37.2,24.1-37.2c17,0,23.5,18,24,34.6l0.1,3.9c0,1.6,1.3,2.6,2.6,2c5.9-2.7,9.7-6.7,9.7-11.7
			c0-1.4,0-2.5,0-3.5C387,38.8,376,11.2,350.7,11.2z"/>
	</g>
</g>
</svg>
