<svg version="1.1"  class='Q6svg' xmlns="http://www.w3.org/2000/svg" xmlns:xlink="http://www.w3.org/1999/xlink" x="0px" y="0px"
	 viewBox="0 0 714.5 202" style="enable-background:new 0 0 714.5 202;" xml:space="preserve">
<g id="Q6x" class="st0">
	<rect y="-1" class="st1" width="715" height="203"/>
</g>
<g class="Q6Long">
	<g id="long2">
		<rect id="long2_x5F_A" x="187" y="129" class="st2" width="27" height="0"/>
		<rect id="long2_x5F_B" x="194.4" y="84.5" class="st2" width="12.2" height="0"/>
		<path class="st3" d="M217.5,89.9l-6.4-5.3c-0.5-0.4-0.8-1-0.8-1.7V69.8h-19.7v13.2c0,0.7-0.3,1.3-0.8,1.7l-6.4,5.3
			c-0.8,0.6-1.2,1.6-1.2,2.6v35.9c0,2.1,1.7,3.8,3.8,3.8h14.4h14.4c2.1,0,3.8-1.7,3.8-3.8V92.5C218.8,91.5,218.3,90.5,217.5,89.9z
			 M195.4,71.8c0-0.9,0.7-1.7,1.7-1.7h6.8c0.9,0,1.7,0.7,1.7,1.7v9.9c0,0.9-0.7,1.7-1.7,1.7h-6.8c-0.9,0-1.7-0.7-1.7-1.7V71.8z
			 M213.5,126.1c0,0.9-0.7,1.7-1.7,1.7h-22.6c-0.9,0-1.7-0.7-1.7-1.7V94.7c0-0.5,0.2-1,0.6-1.3l9.1-7c0.3-0.2,0.6-0.3,1-0.3h5
			c0.4,0,0.8,0.1,1,0.4l8.5,7c0.4,0.3,0.6,0.8,0.6,1.3V126.1z"/>
		<path class="st4" d="M218.8,69.8h-8.4v13.2c0,0.7,0.3,1.3,0.8,1.7l6.4,5.3c0.8,0.6,1.2,1.6,1.2,2.6v35.9c0,2.1-1.7,3.8-3.8,3.8
			h-14.4h-14.4c-2.1,0-3.8-1.7-3.8-3.8V92.5c0-1,0.5-2,1.2-2.6l6.4-5.3c0.5-0.4,0.8-1,0.8-1.7V69.8h-8.4"/>
	</g>
	<g id="long1_1">
		<rect id="long1_x5F_A" x="242.4" y="129" class="st2" width="27" height="0"/>
		<rect id="long1_x5F_B" x="249.8" y="84.5" class="st2" width="12.2" height="0"/>
		<path class="st3" d="M272.9,89.9l-6.4-5.3c-0.5-0.4-0.8-1-0.8-1.7V69.8H246v13.2c0,0.7-0.3,1.3-0.8,1.7l-6.4,5.3
			c-0.8,0.6-1.2,1.6-1.2,2.6v35.9c0,2.1,1.7,3.8,3.8,3.8h14.4h14.4c2.1,0,3.8-1.7,3.8-3.8V92.5C274.2,91.5,273.7,90.5,272.9,89.9z
			 M250.8,71.8c0-0.9,0.7-1.7,1.7-1.7h6.8c0.9,0,1.7,0.7,1.7,1.7v9.9c0,0.9-0.7,1.7-1.7,1.7h-6.8c-0.9,0-1.7-0.7-1.7-1.7V71.8z
			 M268.8,126.1c0,0.9-0.7,1.7-1.7,1.7h-22.6c-0.9,0-1.7-0.7-1.7-1.7V94.7c0-0.5,0.2-1,0.6-1.3l9.1-7c0.3-0.2,0.6-0.3,1-0.3h5
			c0.4,0,0.8,0.1,1,0.4l8.5,7c0.4,0.3,0.6,0.8,0.6,1.3V126.1z"/>
		<path class="st4" d="M274.2,69.8h-8.4v13.2c0,0.7,0.3,1.3,0.8,1.7l6.4,5.3c0.8,0.6,1.2,1.6,1.2,2.6v35.9c0,2.1-1.7,3.8-3.8,3.8
			h-14.4h-14.4c-2.1,0-3.8-1.7-3.8-3.8V92.5c0-1,0.5-2,1.2-2.6l6.4-5.3c0.5-0.4,0.8-1,0.8-1.7V69.8h-8.4"/>
	</g>
	<g id="long3">
		<rect id="long3_x5F_A" x="297.7" y="129" class="st2" width="27" height="0"/>
		<rect id="long3_x5F_B" x="305.1" y="84.5" class="st2" width="12.2" height="0"/>
		<path class="st3" d="M328.3,89.9l-6.4-5.3c-0.5-0.4-0.8-1-0.8-1.7V69.8h-19.7v13.2c0,0.7-0.3,1.3-0.8,1.7l-6.4,5.3
			c-0.8,0.6-1.2,1.6-1.2,2.6v35.9c0,2.1,1.7,3.8,3.8,3.8h14.4h14.4c2.1,0,3.8-1.7,3.8-3.8V92.5C329.5,91.5,329.1,90.5,328.3,89.9z
			 M306.2,71.8c0-0.9,0.7-1.7,1.7-1.7h6.8c0.9,0,1.7,0.7,1.7,1.7v9.9c0,0.9-0.7,1.7-1.7,1.7h-6.8c-0.9,0-1.7-0.7-1.7-1.7V71.8z
			 M324.2,126.1c0,0.9-0.7,1.7-1.7,1.7h-22.6c-0.9,0-1.7-0.7-1.7-1.7V94.7c0-0.5,0.2-1,0.6-1.3l9.1-7c0.3-0.2,0.6-0.3,1-0.3h5
			c0.4,0,0.8,0.1,1,0.4l8.5,7c0.4,0.3,0.6,0.8,0.6,1.3V126.1z"/>
		<path class="st4" d="M329.5,69.8h-8.4v13.2c0,0.7,0.3,1.3,0.8,1.7l6.4,5.3c0.8,0.6,1.2,1.6,1.2,2.6v35.9c0,2.1-1.7,3.8-3.8,3.8
			h-14.4h-14.4c-2.1,0-3.8-1.7-3.8-3.8V92.5c0-1,0.5-2,1.2-2.6l6.4-5.3c0.5-0.4,0.8-1,0.8-1.7V69.8H293"/>
	</g>
	<g id="long4">
		<rect id="long4_x5F_A" x="353.1" y="129" class="st2" width="27" height="0"/>
		<rect id="long4_x5F_B" x="360.5" y="84.5" class="st2" width="12.2" height="0"/>
		<path class="st3" d="M383.7,89.9l-6.4-5.3c-0.5-0.4-0.8-1-0.8-1.7V69.8h-19.7v13.2c0,0.7-0.3,1.3-0.8,1.7l-6.4,5.3
			c-0.8,0.6-1.2,1.6-1.2,2.6v35.9c0,2.1,1.7,3.8,3.8,3.8h14.4h14.4c2.1,0,3.8-1.7,3.8-3.8V92.5C384.9,91.5,384.5,90.5,383.7,89.9z
			 M361.6,71.8c0-0.9,0.7-1.7,1.7-1.7h6.8c0.9,0,1.7,0.7,1.7,1.7v9.9c0,0.9-0.7,1.7-1.7,1.7h-6.8c-0.9,0-1.7-0.7-1.7-1.7V71.8z
			 M379.6,126.1c0,0.9-0.7,1.7-1.7,1.7h-22.6c-0.9,0-1.7-0.7-1.7-1.7V94.7c0-0.5,0.2-1,0.6-1.3l9.1-7c0.3-0.2,0.6-0.3,1-0.3h5
			c0.4,0,0.8,0.1,1,0.4l8.5,7c0.4,0.3,0.6,0.8,0.6,1.3V126.1z"/>
		<path class="st4" d="M384.9,69.8h-8.4v13.2c0,0.7,0.3,1.3,0.8,1.7l6.4,5.3c0.8,0.6,1.2,1.6,1.2,2.6v35.9c0,2.1-1.7,3.8-3.8,3.8
			h-14.4h-14.4c-2.1,0-3.8-1.7-3.8-3.8V92.5c0-1,0.5-2,1.2-2.6l6.4-5.3c0.5-0.4,0.8-1,0.8-1.7V69.8h-8.4"/>
	</g>
	<g id="long5">
		<rect id="long5_x5F_A" x="408.5" y="129" class="st2" width="27" height="0"/>
		<rect id="long5_x5F_B" x="415.9" y="84.5" class="st2" width="12.2" height="0"/>
		<path class="st3" d="M439.1,89.9l-6.4-5.3c-0.5-0.4-0.8-1-0.8-1.7V69.8h-19.7v13.2c0,0.7-0.3,1.3-0.8,1.7l-6.4,5.3
			c-0.8,0.6-1.2,1.6-1.2,2.6v35.9c0,2.1,1.7,3.8,3.8,3.8H422h14.4c2.1,0,3.8-1.7,3.8-3.8V92.5C440.3,91.5,439.8,90.5,439.1,89.9z
			 M417,71.8c0-0.9,0.7-1.7,1.7-1.7h6.8c0.9,0,1.7,0.7,1.7,1.7v9.9c0,0.9-0.7,1.7-1.7,1.7h-6.8c-0.9,0-1.7-0.7-1.7-1.7V71.8z
			 M435,126.1c0,0.9-0.7,1.7-1.7,1.7h-22.6c-0.9,0-1.7-0.7-1.7-1.7V94.7c0-0.5,0.2-1,0.6-1.3l9.1-7c0.3-0.2,0.6-0.3,1-0.3h5
			c0.4,0,0.8,0.1,1,0.4l8.5,7c0.4,0.3,0.6,0.8,0.6,1.3V126.1z"/>
		<path class="st4" d="M440.3,69.8h-8.4v13.2c0,0.7,0.3,1.3,0.8,1.7l6.4,5.3c0.8,0.6,1.2,1.6,1.2,2.6v35.9c0,2.1-1.7,3.8-3.8,3.8
			H422h-14.4c-2.1,0-3.8-1.7-3.8-3.8V92.5c0-1,0.5-2,1.2-2.6l6.4-5.3c0.5-0.4,0.8-1,0.8-1.7V69.8h-8.4"/>
	</g>
	<g id="long6">
		<rect id="long6_x5F_A" x="463.9" y="129" class="st2" width="27" height="0"/>
		<rect id="long6_x5F_B" x="471.3" y="84.5" class="st2" width="12.2" height="0"/>
		<path class="st3" d="M494.4,89.9l-6.4-5.3c-0.5-0.4-0.8-1-0.8-1.7V69.8h-19.7v13.2c0,0.7-0.3,1.3-0.8,1.7l-6.4,5.3
			c-0.8,0.6-1.2,1.6-1.2,2.6v35.9c0,2.1,1.7,3.8,3.8,3.8h14.4h14.4c2.1,0,3.8-1.7,3.8-3.8V92.5C495.7,91.5,495.2,90.5,494.4,89.9z
			 M472.3,71.8c0-0.9,0.7-1.7,1.7-1.7h6.8c0.9,0,1.7,0.7,1.7,1.7v9.9c0,0.9-0.7,1.7-1.7,1.7H474c-0.9,0-1.7-0.7-1.7-1.7V71.8z
			 M490.4,126.1c0,0.9-0.7,1.7-1.7,1.7h-22.6c-0.9,0-1.7-0.7-1.7-1.7V94.7c0-0.5,0.2-1,0.6-1.3l9.1-7c0.3-0.2,0.6-0.3,1-0.3h5
			c0.4,0,0.8,0.1,1,0.4l8.5,7c0.4,0.3,0.6,0.8,0.6,1.3V126.1z"/>
		<path class="st4" d="M495.7,69.8h-8.4v13.2c0,0.7,0.3,1.3,0.8,1.7l6.4,5.3c0.8,0.6,1.2,1.6,1.2,2.6v35.9c0,2.1-1.7,3.8-3.8,3.8
			h-14.4H463c-2.1,0-3.8-1.7-3.8-3.8V92.5c0-1,0.5-2,1.2-2.6l6.4-5.3c0.5-0.4,0.8-1,0.8-1.7V69.8h-8.4"/>
	</g>
</g>
<g class="Q6short">
	<g>
		<g>
			<polyline class="st5" points="183,104.8 301.3,117.6 301.3,101 			"/>
			<line class="st6" x1="179.3" y1="108.7" x2="179.3" y2="93.3"/>
			<path class="st5" d="M301.3,117.6v9.6c0,0,6.9-7.7,10.1-7.7c1.6,0,3.2,0,3.2,0"/>
			<line class="st5" x1="311.4" y1="119.5" x2="311.4" y2="82.3"/>
			<line class="st7" x1="317.5" y1="119.5" x2="317.5" y2="82.3"/>
			<path class="st5" d="M314.6,119.5c9.6,0,80.8,0,111.6,3.6c18.1,2.1,35.6,8.1,35.6,8.1V101"/>
			<line class="st8" x1="444.8" y1="126.2" x2="444.8" y2="75.5"/>
			<polyline class="st9" points="456.2,73.1 456.1,128.9 450.5,127.7 450.5,74 456.2,73.1 			"/>
			<line class="st8" x1="414.5" y1="80.3" x2="414.5" y2="122"/>
			<polyline class="st10" points="403.7,80.3 403.7,121.7 408.8,121.9 409,80.3 403.7,80.3 			"/>
			<polygon class="st7" points="183,101 183,95.1 179.3,93.3 151.1,101 179.3,108.7 183,106.9 			"/>
			<polyline class="st5" points="183,97.2 301.3,84.4 301.3,101 			"/>
			<path class="st5" d="M301.3,84.4v-9.6c0,0,6.9,7.7,10.1,7.7c1.6,0,3.2,0,3.2,0"/>
			<path class="st5" d="M314.6,82.5c9.6,0,80.8,0,111.6-3.6c18.1-2.1,35.6-8.1,35.6-8.1V101"/>
			<polyline class="st5" points="461.8,70.8 471.9,77.1 471.9,101 471.9,124.9 461.8,131.2 			"/>
			
				<rect x="495.1" y="73.3" transform="matrix(6.123234e-17 -1 1 6.123234e-17 398.587 600.587)" class="st5" width="9" height="55.4"/>
			<path class="st5" d="M562.7,101.9c1-0.2,1-1.6,0-1.8c-5.3-0.8-17.2-2-20.4-2.8c-2.7-0.6-8.8-2.6-12.3-3.8
				c-1.3-0.4-2.7,0.6-2.7,2.2v10.6c0,1.5,1.4,2.6,2.7,2.2c3.5-1.2,9.6-3.1,12.2-3.7C545.5,104,557.4,102.7,562.7,101.9z"/>
			<polygon class="st11" points="444.8,75.5 444.8,126.2 428.8,123.4 414.5,122 414.5,80.3 430.9,78.3 			"/>
			<polyline class="st6" points="413.9,121.6 444.8,116.1 414.5,110 444.8,101.1 414.5,92 443.6,85.6 413.9,80.4 			"/>
			<polyline class="st8" points="342.2,119.5 339.1,114.8 327.2,114.8 327.2,104.9 337.9,104.9 342.6,100.2 337.9,95.9 327.2,95.9 
				327.2,86.9 337.9,86.9 342.6,82.4 			"/>
			<line class="st6" x1="312.3" y1="101.4" x2="300.7" y2="101.4"/>
			<line class="st6" x1="311.4" y1="98.3" x2="301.3" y2="96.9"/>
			<line class="st6" x1="311.4" y1="94.3" x2="301.3" y2="92.7"/>
			<line class="st6" x1="311.4" y1="91.2" x2="301.3" y2="87.9"/>
			<line class="st6" x1="311.4" y1="87.6" x2="301.3" y2="82.4"/>
			<line class="st6" x1="311.4" y1="104.5" x2="301.3" y2="105.9"/>
			<line class="st6" x1="311.4" y1="108.4" x2="301.3" y2="110"/>
			<line class="st6" x1="311.4" y1="111.6" x2="301.3" y2="114.8"/>
			<line class="st6" x1="311.4" y1="115.1" x2="301.3" y2="120.3"/>
			<circle class="st6" cx="333.5" cy="100.5" r="1.5"/>
		</g>
		<g>
			<line class="st6" x1="471.9" y1="101" x2="461.8" y2="101"/>
			<line class="st6" x1="471.9" y1="97.1" x2="461.8" y2="96.4"/>
			<line class="st6" x1="471.9" y1="93.3" x2="461.8" y2="91.7"/>
			<line class="st6" x1="471.9" y1="89.4" x2="461.8" y2="87.1"/>
			<line class="st6" x1="471.9" y1="85.5" x2="461.8" y2="82.5"/>
			<line class="st6" x1="471.9" y1="81.7" x2="461.8" y2="77.8"/>
		</g>
		<g>
			<line class="st6" x1="471.9" y1="104.9" x2="461.8" y2="105.6"/>
			<line class="st6" x1="471.9" y1="108.7" x2="461.8" y2="110.3"/>
			<line class="st6" x1="471.9" y1="112.6" x2="461.8" y2="114.9"/>
			<line class="st6" x1="471.9" y1="116.5" x2="461.8" y2="119.5"/>
			<line class="st6" x1="471.9" y1="120.3" x2="461.8" y2="124.2"/>
		</g>
	</g>
</g>
</svg>
