<?xml version="1.0" encoding="utf-8"?>
<!-- Generator: Adobe Illustrator 22.1.0, SVG Export Plug-In . SVG Version: 6.00 Build 0)  -->
<svg version="1.1" id="圖層_1" xmlns="http://www.w3.org/2000/svg" xmlns:xlink="http://www.w3.org/1999/xlink" x="0px" y="0px"
	 viewBox="0 0 714.5 202" style="enable-background:new 0 0 714.5 202;" xml:space="preserve">
<style type="text/css">
	.st90{fill:#040000;}
	.st91{fill:#040000;stroke:#E04B4B;stroke-width:3;stroke-linecap:round;stroke-linejoin:round;stroke-miterlimit:10;}
	.st92{fill:none;stroke:#E04B4B;stroke-width:3;stroke-linecap:round;stroke-linejoin:round;stroke-miterlimit:10;}
	.st93{fill:#E04B4B;}
	.st94{fill:#040000;stroke:#6DBACC;stroke-width:3;stroke-linecap:round;stroke-linejoin:round;stroke-miterlimit:10;}
	.st95{fill:#6DBACC;}
</style>
<g id="R12_x5F_box_x5F_V2">
	<rect x="183.2" y="89.3" class="st90" width="77.7" height="7.1"/>
	<g>
		<path class="st91" d="M282.7,145.9h-121v-37.6c0-6.6,6.1-12,13.6-12h93.9c7.5,0,13.6,5.4,13.6,12V145.9z"/>
		<rect x="176.7" y="96.3" class="st91" width="91.1" height="31.9"/>
		<path class="st91" d="M282.7,161.5h-121v-15c0-6.6,6.1-12,13.6-12h93.9c7.5,0,13.6,5.4,13.6,12V161.5z"/>
		<line class="st92" x1="267.8" y1="115.8" x2="176.7" y2="115.8"/>
		<line class="st92" x1="267.8" y1="107.2" x2="176.7" y2="107.2"/>
		<rect x="188" y="102.8" class="st91" width="68.4" height="17.3"/>
		<g>
			<path class="st93" d="M219,116.9h-2.2l-1.4-2.4c-0.3-0.5-0.5-0.8-0.7-0.9c-0.2-0.1-0.4-0.2-0.6-0.2h-0.6v3.5h-1.9v-9.1h3.2
				c2.2,0,3.2,0.8,3.2,2.5c0,0.6-0.2,1.1-0.5,1.6c-0.4,0.4-0.9,0.8-1.5,0.9v0c0.4,0.1,0.9,0.6,1.4,1.4L219,116.9z M213.5,109.3v2.6
				h0.9c0.5,0,0.8-0.1,1.1-0.4c0.3-0.3,0.4-0.6,0.4-1c0-0.8-0.5-1.2-1.5-1.2L213.5,109.3L213.5,109.3L213.5,109.3z"/>
			<path class="st93" d="M225.6,116.9h-5.7v-1.5h1.9v-5.8l-1.9,0.4v-1.6l3.8-0.8v7.7h1.9L225.6,116.9L225.6,116.9z"/>
			<path class="st93" d="M232.9,116.9h-5.9v-1.5l2.6-2.5c0.5-0.5,0.9-1,1.1-1.3c0.2-0.4,0.3-0.7,0.3-1.1c0-0.9-0.5-1.3-1.4-1.3
				c-0.8,0-1.5,0.3-2.3,0.9v-1.7c0.8-0.5,1.7-0.8,2.6-0.8c0.9,0,1.6,0.2,2.1,0.7s0.8,1.1,0.8,1.9c0,1.1-0.6,2.2-1.9,3.3l-1.9,1.7v0
				h3.7L232.9,116.9L232.9,116.9L232.9,116.9z"/>
		</g>
		<g>
			<circle class="st92" cx="178" cy="151.4" r="3.4"/>
			<circle class="st92" cx="200.1" cy="151.4" r="3.4"/>
			<circle class="st92" cx="222.2" cy="151.4" r="3.4"/>
			<circle class="st92" cx="244.3" cy="151.4" r="3.4"/>
			<circle class="st92" cx="266.4" cy="151.4" r="3.4"/>
		</g>
	</g>
	<g>
		<polygon class="st91" points="257.7,78.4 261.2,90.4 183.2,90.4 186.6,78.4 		"/>
	</g>
	<line class="st92" x1="271.7" y1="134.5" x2="271.7" y2="96.4"/>
	<line class="st92" x1="172.9" y1="134.5" x2="172.9" y2="96.4"/>
</g>
<g id="R12_x5F_tube_x5F_V2">
	<rect x="176.7" y="69" class="st91" width="91.1" height="27.2"/>
	<g>
		<polygon class="st91" points="257.7,59.6 261.2,71.6 261.2,90.4 183.2,90.4 183.2,71.6 186.6,59.6 		"/>
	</g>
	<rect x="186.6" y="59.6" class="st91" width="71.1" height="18.7"/>
</g>
<g id="R6_x5F_tube_x5F_V2">
	<rect x="478.7" y="69" class="st94" width="91.1" height="27.2"/>
	<g>
		<polygon class="st94" points="559.8,59.6 563.2,71.6 563.2,90.4 485.2,90.4 485.2,71.6 488.7,59.6 		"/>
	</g>
	<rect x="488.7" y="59.6" class="st94" width="71.1" height="18.7"/>
</g>
<g id="R6_x5F_box_x5F_V2">
	<rect x="485.2" y="89.3" class="st90" width="77.7" height="7.1"/>
	<g>
		<path class="st94" d="M584.8,145.9h-121v-37.6c0-6.6,6.1-12,13.6-12h93.9c7.5,0,13.6,5.4,13.6,12V145.9z"/>
		<rect x="478.7" y="96.3" class="st94" width="91.1" height="31.9"/>
		<path class="st94" d="M584.8,161.5h-121v-15c0-6.6,6.1-12,13.6-12h93.9c7.5,0,13.6,5.4,13.6,12V161.5z"/>
		<line class="st94" x1="569.8" y1="115.8" x2="478.7" y2="115.8"/>
		<line class="st94" x1="569.8" y1="107.2" x2="478.7" y2="107.2"/>
		<rect x="490" y="102.8" class="st94" width="68.4" height="17.3"/>
		<g>
			<circle class="st94" cx="480" cy="151.4" r="3.4"/>
			<circle class="st94" cx="502.1" cy="151.4" r="3.4"/>
			<circle class="st94" cx="524.2" cy="151.4" r="3.4"/>
			<circle class="st94" cx="546.4" cy="151.4" r="3.4"/>
			<circle class="st94" cx="568.5" cy="151.4" r="3.4"/>
		</g>
		<g>
			<path class="st95" d="M524.6,116.5h-2.2l-1.4-2.4c-0.3-0.5-0.5-0.8-0.7-0.9c-0.2-0.1-0.4-0.2-0.6-0.2H519v3.5h-1.9v-9.1h3.2
				c2.2,0,3.2,0.8,3.2,2.5c0,0.6-0.2,1.1-0.5,1.6c-0.4,0.4-0.9,0.8-1.5,0.9v0c0.4,0.1,0.9,0.6,1.4,1.4L524.6,116.5z M519,108.9v2.6
				h0.9c0.5,0,0.8-0.1,1.1-0.4c0.3-0.3,0.4-0.6,0.4-1c0-0.8-0.5-1.2-1.5-1.2L519,108.9L519,108.9z"/>
			<path class="st95" d="M530.8,109.2c-0.5-0.3-1.1-0.5-1.7-0.5c-1.5,0-2.2,1-2.2,2.9l0,0c0.4-0.6,1-0.9,1.8-0.9
				c0.8,0,1.4,0.3,1.9,0.8c0.5,0.5,0.7,1.2,0.7,2c0,0.9-0.3,1.7-0.9,2.3s-1.3,0.9-2.3,0.9c-1,0-1.8-0.4-2.3-1.1
				c-0.6-0.7-0.8-1.8-0.8-3.1c0-1.6,0.3-2.8,1-3.8c0.7-0.9,1.6-1.4,2.9-1.4c0.7,0,1.3,0.1,1.9,0.3L530.8,109.2L530.8,109.2z
				 M529.4,113.6c0-0.5-0.1-0.9-0.3-1.1c-0.2-0.3-0.5-0.4-1-0.4c-0.4,0-0.7,0.1-0.9,0.4c-0.2,0.3-0.3,0.6-0.3,1
				c0,0.5,0.1,0.9,0.3,1.2c0.2,0.3,0.5,0.5,0.9,0.5c0.4,0,0.7-0.1,0.9-0.4C529.3,114.4,529.4,114.1,529.4,113.6z"/>
		</g>
	</g>
	<g>
		<polygon class="st94" points="559.8,78.4 563.2,90.4 485.2,90.4 488.7,78.4 		"/>
	</g>
	<line class="st94" x1="573.7" y1="134.5" x2="573.7" y2="96.4"/>
	<line class="st94" x1="475" y1="134.5" x2="475" y2="96.4"/>
</g>
</svg>
